<svg height="40" viewBox="0 0 800 800" width="100%" xml:space="preserve" xmlns="http://www.w3.org/2000/svg" xmlns:xlink="http://www.w3.org/1999/xlink">
<style>
.mainLogo{
	fill: rgb(255, 255, 255, 0.75);
	transition: 0.2s linear;
    pointer-events: bounding-box;
}
.mainLogo:hover{
	fill: white;
}
.mainContainer:hover > .mainLogo{fill:rgb(255, 166, 0); pointer-events: bounding-box; filter: drop-shadow( 0px 0px 75px rgb(255, 187, 0));}
g{
    pointer-events: bounding-box;
}
</style>
<a xlink:href="/" target="_top">
<g class="mainContainer">
<path class="mainLogo" d="M129.375 59.875C153.387 82.0918 178.503 103.236 200.812 127.219C215.783 143.313 229.246 160.708 240.906 179.344C248.111 190.859 254.652 202.776 260.188 215.188C272.423 242.619 280.286 271.962 285.094 301.562C288.812 324.459 290.678 347.682 290.812 370.875C290.92 389.379 289.801 407.905 287.656 426.281C285.916 441.186 283.51 456.026 280.156 470.656C276.762 485.463 272.638 500.179 267.469 514.469C262.844 527.253 257.357 539.678 251.562 551.969C249.404 556.548 247.415 561.216 245.094 565.719C242.823 570.124 240.309 574.45 237.688 578.656C232.33 587.254 226.106 595.286 219.75 603.156C206.372 619.722 190.992 634.839 173.281 646.75C161.478 654.688 148.666 661.095 135.281 665.906C125.605 669.385 115.601 672.004 105.469 673.75C100.521 674.603 95.5553 675.204 90.5625 675.719C72.979 677.8 60.4184 693.729 62.5 711.312C64.5816 728.896 80.5102 741.457 98.0938 739.375C104.559 738.51 111.014 737.525 117.406 736.219C134.119 732.803 150.466 727.635 166.062 720.719C179.889 714.588 193.067 706.939 205.375 698.156C222.225 686.133 237.306 671.899 250.469 655.938C256.059 649.158 261.326 642.041 266.094 634.656C270.548 627.757 274.654 620.615 278.469 613.344C280.38 609.701 282.18 606.016 284.031 602.344C286.42 597.605 288.616 592.784 290.844 587.969C293.322 582.611 295.863 577.257 298 571.75C305.557 552.277 310.615 531.812 314.625 511.344C317.174 498.331 319.112 485.214 320.531 472.031C324.078 439.096 324.407 405.872 321.438 372.875C319.331 349.47 315.8 326.224 310.406 303.344C303.319 273.279 293.188 243.819 279.188 216.25C261.623 181.662 237.267 150.601 208.969 124.156C184.024 100.846 156.144 80.9804 129.375 59.875Z" fill="#000000" stroke="none"/>
<path class="mainLogo" d="M673.5 60.875C646.731 81.9804 618.851 101.877 593.906 125.188C565.608 151.632 541.221 182.661 523.656 217.25C509.394 245.334 499.162 275.41 492.062 306.062C486.754 328.983 483.282 352.256 481.25 375.688C478.439 408.098 478.861 440.722 482.344 473.062C483.763 486.245 485.669 499.362 488.219 512.375C492.229 532.843 497.286 553.308 504.844 572.781C506.981 578.288 509.522 583.642 512 589C514.474 594.349 516.992 599.664 519.625 604.938C524.875 615.455 530.368 625.803 536.75 635.688C541.518 643.072 546.816 650.158 552.406 656.938C565.954 673.365 581.532 687.98 598.969 700.219C611.359 708.916 624.58 716.434 638.469 722.469C653.551 729.022 669.36 733.926 685.469 737.219C691.861 738.525 698.285 739.542 704.75 740.406C722.334 742.488 738.293 729.927 740.375 712.344C742.457 694.76 729.865 678.8 712.281 676.719C707.288 676.204 702.323 675.603 697.375 674.75C687.243 673.004 677.239 670.416 667.562 666.938C654.178 662.126 641.397 655.688 629.594 647.75C611.883 635.839 596.503 620.753 583.125 604.188C576.769 596.317 570.545 588.254 565.188 579.656C562.566 575.45 560.052 571.124 557.781 566.719C555.227 561.763 553.033 556.65 550.625 551.625C544.518 538.882 538.984 525.807 534.312 512.469C529.461 498.617 525.564 484.408 522.344 470.094C519.17 455.988 516.863 441.67 515.188 427.312C513.042 408.936 511.924 390.379 512.031 371.875C512.166 348.682 514.032 325.49 517.75 302.594C522.557 272.993 530.452 243.65 542.688 216.219C548.223 203.807 554.732 191.891 561.938 180.375C573.597 161.74 587.06 144.313 602.031 128.219C624.341 104.236 649.488 83.0918 673.5 60.875Z" fill="#000000" stroke="none"/>
<path class="mainLogo" d="M302.406 306.094C295.703 306.689 290.103 311.928 289.312 318.875C288.409 326.814 294.123 333.971 302.062 334.875C307.657 335.212 312.961 337.015 318.125 339.094C320.42 340.018 322.708 341.008 325 341.938C326.68 342.619 328.401 343.232 330.031 344.031C331.72 344.86 333.243 345.942 334.906 346.812C336.644 347.722 338.424 348.549 340.156 349.469C342.837 350.892 345.461 352.417 348.031 354.031C360.522 361.879 372.346 371.481 382.531 382.156C389.674 389.643 396.51 397.824 400.938 407.25C398.111 394.907 391.454 383.371 384.625 372.844C377.493 361.849 369.365 351.487 360.562 341.781C357.942 338.892 355.303 336.026 352.594 333.219C351.059 331.629 349.543 330.018 347.906 328.531C346.304 327.076 344.516 325.872 342.844 324.5C340.366 322.467 338.015 320.3 335.375 318.469C326.424 312.26 316.145 307.744 305.344 306.125C304.351 306.012 303.364 306.009 302.406 306.094Z" fill="#000000" stroke="none"/>
<path class="mainLogo" d="M499.344 306.062C498.386 305.978 497.43 305.981 496.438 306.094C485.637 307.712 475.357 312.26 466.406 318.469C463.767 320.3 461.415 322.435 458.938 324.469C457.265 325.841 455.446 327.044 453.844 328.5C452.207 329.987 450.691 331.597 449.156 333.188C446.447 335.994 443.808 338.861 441.188 341.75C432.385 351.456 424.257 361.818 417.125 372.812C410.296 383.34 403.67 394.875 400.844 407.219C405.271 397.793 412.107 389.612 419.25 382.125C429.435 371.45 441.228 361.879 453.719 354.031C456.289 352.417 458.944 350.861 461.625 349.438C463.358 348.518 465.137 347.691 466.875 346.781C468.539 345.911 470.062 344.828 471.75 344C473.38 343.2 475.101 342.587 476.781 341.906C479.074 340.977 481.33 339.986 483.625 339.062C488.789 336.983 494.093 335.18 499.688 334.844C507.627 333.94 513.341 326.783 512.438 318.844C511.647 311.897 506.047 306.657 499.344 306.062Z" fill="#000000" stroke="none"/>
</g>
</a>
</svg>
